<mxfile host="app.diagrams.net" agent="Mozilla/5.0 (Windows NT 10.0; Win64; x64) AppleWebKit/537.36 (KHTML, like Gecko) Chrome/130.0.0.0 Safari/537.36" version="24.8.4">
  <diagram name="Página-1" id="FheW0xuVIouLhUbn4fxL">
    <mxGraphModel grid="1" page="1" gridSize="10" guides="1" tooltips="1" connect="1" arrows="1" fold="1" pageScale="1" pageWidth="827" pageHeight="1169" math="0" shadow="0">
      <root>
        <mxCell id="0" />
        <mxCell id="1" parent="0" />
        <mxCell id="36hQbMMVAJmpbDXlIaQu-1" value=":Usuario" style="rounded=0;whiteSpace=wrap;html=1;" vertex="1" parent="1">
          <mxGeometry x="-1600" y="40" width="120" height="60" as="geometry" />
        </mxCell>
        <mxCell id="36hQbMMVAJmpbDXlIaQu-57" value="" style="endArrow=classic;html=1;rounded=0;entryX=0.5;entryY=0;entryDx=0;entryDy=0;" edge="1" parent="1" target="TrgdW-IsMALMldUQBs6g-4">
          <mxGeometry width="50" height="50" relative="1" as="geometry">
            <mxPoint x="-1540" y="135" as="sourcePoint" />
            <mxPoint x="-1220" y="135" as="targetPoint" />
          </mxGeometry>
        </mxCell>
        <mxCell id="36hQbMMVAJmpbDXlIaQu-58" value="&lt;p style=&quot;font-size: 8px;&quot;&gt;&lt;font style=&quot;font-size: 8px;&quot;&gt;IntroducirDatosArticulo(&lt;span style=&quot;text-align: start; font-size: 8px;&quot;&gt;&lt;font style=&quot;font-size: 8px;&quot; face=&quot;Helvetica&quot;&gt;idProducto, Codigo, Nombre, Descripcion, idCategoria, Stock, PrecioCompra, PrecioVenta, Estado, FechaRegistro&lt;/font&gt;&lt;/span&gt;)&lt;/font&gt;&lt;/p&gt;" style="text;html=1;align=center;verticalAlign=middle;whiteSpace=wrap;rounded=0;fontSize=8;" vertex="1" parent="1">
          <mxGeometry x="-1520" y="110" width="280" height="25" as="geometry" />
        </mxCell>
        <mxCell id="36hQbMMVAJmpbDXlIaQu-59" value="caa:ControlAgregarArticulo" style="rounded=0;whiteSpace=wrap;html=1;" vertex="1" parent="1">
          <mxGeometry x="-1300" y="40" width="150" height="60" as="geometry" />
        </mxCell>
        <mxCell id="TrgdW-IsMALMldUQBs6g-2" value="" style="endArrow=none;dashed=1;html=1;dashPattern=1 3;strokeWidth=2;rounded=0;entryX=0.5;entryY=1;entryDx=0;entryDy=0;" edge="1" parent="1" target="36hQbMMVAJmpbDXlIaQu-1">
          <mxGeometry width="50" height="50" relative="1" as="geometry">
            <mxPoint x="-1540" y="800" as="sourcePoint" />
            <mxPoint x="-1570" y="150" as="targetPoint" />
          </mxGeometry>
        </mxCell>
        <mxCell id="TrgdW-IsMALMldUQBs6g-3" value="" style="endArrow=none;dashed=1;html=1;dashPattern=1 3;strokeWidth=2;rounded=0;entryX=0.5;entryY=1;entryDx=0;entryDy=0;" edge="1" parent="1" source="TrgdW-IsMALMldUQBs6g-4" target="36hQbMMVAJmpbDXlIaQu-59">
          <mxGeometry width="50" height="50" relative="1" as="geometry">
            <mxPoint x="-1220" y="780" as="sourcePoint" />
            <mxPoint x="-1220" y="100" as="targetPoint" />
          </mxGeometry>
        </mxCell>
        <mxCell id="TrgdW-IsMALMldUQBs6g-5" value="" style="endArrow=none;dashed=1;html=1;dashPattern=1 3;strokeWidth=2;rounded=0;entryX=0.5;entryY=1;entryDx=0;entryDy=0;" edge="1" parent="1" target="TrgdW-IsMALMldUQBs6g-4">
          <mxGeometry width="50" height="50" relative="1" as="geometry">
            <mxPoint x="-1225" y="820" as="sourcePoint" />
            <mxPoint x="-1220" y="100" as="targetPoint" />
          </mxGeometry>
        </mxCell>
        <mxCell id="TrgdW-IsMALMldUQBs6g-4" value="" style="rounded=0;whiteSpace=wrap;html=1;" vertex="1" parent="1">
          <mxGeometry x="-1230" y="135" width="10" height="545" as="geometry" />
        </mxCell>
        <mxCell id="TrgdW-IsMALMldUQBs6g-6" value="ca:&amp;lt;&amp;lt;Singleton&amp;gt;&amp;gt;CatalogoArticulo" style="rounded=0;whiteSpace=wrap;html=1;" vertex="1" parent="1">
          <mxGeometry x="-1070" y="40" width="190" height="60" as="geometry" />
        </mxCell>
        <mxCell id="TrgdW-IsMALMldUQBs6g-7" value="" style="endArrow=none;dashed=1;html=1;dashPattern=1 3;strokeWidth=2;rounded=0;entryX=0.5;entryY=1;entryDx=0;entryDy=0;" edge="1" parent="1" source="TrgdW-IsMALMldUQBs6g-10">
          <mxGeometry width="50" height="50" relative="1" as="geometry">
            <mxPoint x="-975" y="760" as="sourcePoint" />
            <mxPoint x="-975.5" y="100" as="targetPoint" />
          </mxGeometry>
        </mxCell>
        <mxCell id="TrgdW-IsMALMldUQBs6g-8" value="&lt;p style=&quot;font-size: 8px;&quot;&gt;&lt;font style=&quot;font-size: 8px;&quot;&gt;AgregarArticulo(&lt;span style=&quot;text-align: start; font-size: 8px;&quot;&gt;&lt;font style=&quot;font-size: 8px;&quot; face=&quot;Helvetica&quot;&gt;idProducto, Codigo, Nombre, Descripcion, idCategoria, Stock, PrecioCompra, PrecioVenta, Estado, FechaRegistro&lt;/font&gt;&lt;/span&gt;)&lt;/font&gt;&lt;/p&gt;" style="text;html=1;align=center;verticalAlign=middle;whiteSpace=wrap;rounded=0;fontSize=8;" vertex="1" parent="1">
          <mxGeometry x="-1220" y="130" width="230" height="25" as="geometry" />
        </mxCell>
        <mxCell id="TrgdW-IsMALMldUQBs6g-9" value="" style="endArrow=classic;html=1;rounded=0;" edge="1" parent="1">
          <mxGeometry width="50" height="50" relative="1" as="geometry">
            <mxPoint x="-1220" y="160" as="sourcePoint" />
            <mxPoint x="-980" y="160" as="targetPoint" />
          </mxGeometry>
        </mxCell>
        <mxCell id="TrgdW-IsMALMldUQBs6g-12" value="" style="endArrow=none;dashed=1;html=1;dashPattern=1 3;strokeWidth=2;rounded=0;entryX=0.5;entryY=1;entryDx=0;entryDy=0;" edge="1" parent="1" target="TrgdW-IsMALMldUQBs6g-10">
          <mxGeometry width="50" height="50" relative="1" as="geometry">
            <mxPoint x="-975" y="480" as="sourcePoint" />
            <mxPoint x="-975.5" y="100" as="targetPoint" />
          </mxGeometry>
        </mxCell>
        <mxCell id="TrgdW-IsMALMldUQBs6g-10" value="" style="rounded=0;whiteSpace=wrap;html=1;" vertex="1" parent="1">
          <mxGeometry x="-980" y="160" width="10" height="120" as="geometry" />
        </mxCell>
        <mxCell id="uLo96ekAwjRDRHHcFPor-3" value="" style="endArrow=none;dashed=1;html=1;rounded=0;startArrow=classic;startFill=1;exitX=1.32;exitY=0.827;exitDx=0;exitDy=0;exitPerimeter=0;" edge="1" parent="1">
          <mxGeometry width="50" height="50" relative="1" as="geometry">
            <mxPoint x="-1216.8" y="279.005" as="sourcePoint" />
            <mxPoint x="-980" y="279.28" as="targetPoint" />
          </mxGeometry>
        </mxCell>
        <mxCell id="uLo96ekAwjRDRHHcFPor-4" value="&amp;lt;&amp;lt;ArticuloAgregadoConExito&amp;gt;&amp;gt;" style="text;html=1;align=center;verticalAlign=middle;whiteSpace=wrap;rounded=0;" vertex="1" parent="1">
          <mxGeometry x="-1130" y="250" width="60" height="30" as="geometry" />
        </mxCell>
        <mxCell id="uLo96ekAwjRDRHHcFPor-5" value="" style="endArrow=none;dashed=1;html=1;rounded=0;entryX=0;entryY=1;entryDx=0;entryDy=0;startArrow=classic;startFill=1;" edge="1" parent="1">
          <mxGeometry width="50" height="50" relative="1" as="geometry">
            <mxPoint x="-1540" y="680" as="sourcePoint" />
            <mxPoint x="-1230" y="680" as="targetPoint" />
          </mxGeometry>
        </mxCell>
        <mxCell id="uLo96ekAwjRDRHHcFPor-7" value="&amp;lt;&amp;lt;Msg&amp;gt;&amp;gt;" style="text;html=1;align=center;verticalAlign=middle;whiteSpace=wrap;rounded=0;" vertex="1" parent="1">
          <mxGeometry x="-1410" y="650" width="60" height="20" as="geometry" />
        </mxCell>
        <mxCell id="uLo96ekAwjRDRHHcFPor-8" value="&quot;Articulo agregado con éxito&quot;" style="rounded=0;whiteSpace=wrap;html=1;" vertex="1" parent="1">
          <mxGeometry x="-1190" y="710" width="120" height="60" as="geometry" />
        </mxCell>
        <mxCell id="uLo96ekAwjRDRHHcFPor-9" value="" style="endArrow=none;dashed=1;html=1;dashPattern=1 3;strokeWidth=2;rounded=0;entryX=0.5;entryY=1;entryDx=0;entryDy=0;exitX=0;exitY=0;exitDx=0;exitDy=0;" edge="1" parent="1">
          <mxGeometry width="50" height="50" relative="1" as="geometry">
            <mxPoint x="-1195" y="710" as="sourcePoint" />
            <mxPoint x="-1220" y="680" as="targetPoint" />
          </mxGeometry>
        </mxCell>
        <mxCell id="uLo96ekAwjRDRHHcFPor-10" value="lv:LineaDeVenta" style="rounded=0;whiteSpace=wrap;html=1;" vertex="1" parent="1">
          <mxGeometry x="-810" y="510" width="120" height="60" as="geometry" />
        </mxCell>
        <mxCell id="uLo96ekAwjRDRHHcFPor-11" value="" style="endArrow=none;dashed=1;html=1;dashPattern=1 3;strokeWidth=2;rounded=0;entryX=0.5;entryY=1;entryDx=0;entryDy=0;" edge="1" parent="1" target="uLo96ekAwjRDRHHcFPor-10">
          <mxGeometry width="50" height="50" relative="1" as="geometry">
            <mxPoint x="-750" y="800" as="sourcePoint" />
            <mxPoint x="-760" y="510" as="targetPoint" />
          </mxGeometry>
        </mxCell>
        <mxCell id="uLo96ekAwjRDRHHcFPor-12" value="" style="endArrow=classic;html=1;rounded=0;" edge="1" parent="1">
          <mxGeometry width="50" height="50" relative="1" as="geometry">
            <mxPoint x="-1225" y="540" as="sourcePoint" />
            <mxPoint x="-810" y="540" as="targetPoint" />
          </mxGeometry>
        </mxCell>
        <mxCell id="uLo96ekAwjRDRHHcFPor-13" value="create (&amp;nbsp;&lt;span style=&quot;font-size: 8px; text-align: start;&quot;&gt;idProducto, Codigo, Nombre, Descripcion, idCategoria, Stock, PrecioCompra, PrecioVenta, Estado, FechaRegistro&lt;/span&gt;)" style="text;html=1;align=center;verticalAlign=middle;whiteSpace=wrap;rounded=0;" vertex="1" parent="1">
          <mxGeometry x="-1207" y="500" width="380" height="30" as="geometry" />
        </mxCell>
        <mxCell id="uLo96ekAwjRDRHHcFPor-14" value="" style="endArrow=classic;html=1;rounded=0;exitX=1.159;exitY=0.863;exitDx=0;exitDy=0;exitPerimeter=0;" edge="1" parent="1" source="TrgdW-IsMALMldUQBs6g-4">
          <mxGeometry width="50" height="50" relative="1" as="geometry">
            <mxPoint x="-1050" y="660" as="sourcePoint" />
            <mxPoint x="-440" y="605" as="targetPoint" />
          </mxGeometry>
        </mxCell>
        <mxCell id="uLo96ekAwjRDRHHcFPor-15" value="AgregarLinea; LineaDeVenta" style="text;html=1;align=center;verticalAlign=middle;whiteSpace=wrap;rounded=0;" vertex="1" parent="1">
          <mxGeometry x="-1080" y="570" width="180" height="30" as="geometry" />
        </mxCell>
        <mxCell id="uLo96ekAwjRDRHHcFPor-16" value="&amp;lt;&amp;lt;multiobjeto&amp;gt;&amp;gt;Lineas:LineaDeVenta" style="rounded=0;whiteSpace=wrap;html=1;" vertex="1" parent="1">
          <mxGeometry x="-540" y="40" width="210" height="60" as="geometry" />
        </mxCell>
        <mxCell id="uLo96ekAwjRDRHHcFPor-17" value="" style="endArrow=none;dashed=1;html=1;rounded=0;entryX=0.5;entryY=1;entryDx=0;entryDy=0;" edge="1" parent="1" target="uLo96ekAwjRDRHHcFPor-16">
          <mxGeometry width="50" height="50" relative="1" as="geometry">
            <mxPoint x="-435" y="750" as="sourcePoint" />
            <mxPoint x="-480" y="270" as="targetPoint" />
          </mxGeometry>
        </mxCell>
        <mxCell id="uLo96ekAwjRDRHHcFPor-18" value="" style="endArrow=none;dashed=1;html=1;dashPattern=1 3;strokeWidth=2;rounded=0;startArrow=classic;startFill=1;" edge="1" parent="1">
          <mxGeometry width="50" height="50" relative="1" as="geometry">
            <mxPoint x="-1218" y="660" as="sourcePoint" />
            <mxPoint x="-440" y="660" as="targetPoint" />
          </mxGeometry>
        </mxCell>
      </root>
    </mxGraphModel>
  </diagram>
</mxfile>
